<?xml version="1.0" encoding="UTF-8" standalone="no"?>
<svg
   xmlns:dc="http://purl.org/dc/elements/1.1/"
   xmlns:cc="http://creativecommons.org/ns#"
   xmlns:rdf="http://www.w3.org/1999/02/22-rdf-syntax-ns#"
   xmlns:svg="http://www.w3.org/2000/svg"
   xmlns="http://www.w3.org/2000/svg"
   xmlns:sodipodi="http://sodipodi.sourceforge.net/DTD/sodipodi-0.dtd"
   xmlns:inkscape="http://www.inkscape.org/namespaces/inkscape"
   version="1.1"
   x="0px"
   y="0px"
   width="128"
   height="128"
   viewBox="0, 0, 128, 128"
   id="svg2451"
   sodipodi:docname="escher_disabled.svg"
   inkscape:version="0.92.3 (3ce5693, 2018-03-11)"
   inkscape:export-filename="/home/xander/Escher_island/checkio-missions-escher/03.compass,map_and_spyglass/info/logo/escher_enabled.png"
   inkscape:export-xdpi="810.00006"
   inkscape:export-ydpi="810.00006">
  <sodipodi:namedview
     pagecolor="#ffffff"
     bordercolor="#666666"
     borderopacity="1"
     objecttolerance="10"
     gridtolerance="10"
     guidetolerance="10"
     inkscape:pageopacity="0"
     inkscape:pageshadow="2"
     inkscape:window-width="1600"
     inkscape:window-height="876"
     id="namedview138"
     showgrid="false"
     inkscape:zoom="2.8007813"
     inkscape:cx="23.383841"
     inkscape:cy="31.39497"
     inkscape:window-x="0"
     inkscape:window-y="24"
     inkscape:window-maximized="1"
     inkscape:current-layer="g2447" />
  <metadata
     id="metadata2455">
    <rdf:RDF>
      <cc:Work
         rdf:about="">
        <dc:format>image/svg+xml</dc:format>
        <dc:type
           rdf:resource="http://purl.org/dc/dcmitype/StillImage" />
        <dc:title></dc:title>
      </cc:Work>
    </rdf:RDF>
  </metadata>
  <g
     id="Background"
     transform="matrix(1.2705,0,0,1.2705,-28.882197,-27.900779)">
    <rect
       x="0"
       y="0"
       width="128"
       height="128"
       id="rect2434"
       style="fill:#000000;fill-opacity:0" />
  </g>
  <g
     id="g2447">
    <g
       transform="matrix(0.2025,0,0,0.2025,11.313137,17.859557)"
       id="g3681"
       style="fill:#ebeded;fill-opacity:1" />
    <g
       transform="matrix(0.2025,0,0,0.2025,11.313137,17.859557)"
       id="g3683"
       style="fill:#ebeded;fill-opacity:1" />
    <g
       transform="matrix(0.2025,0,0,0.2025,11.313137,17.859557)"
       id="g3685"
       style="fill:#ebeded;fill-opacity:1" />
    <g
       transform="matrix(0.2025,0,0,0.2025,11.313137,17.859557)"
       id="g3687"
       style="fill:#ebeded;fill-opacity:1" />
    <g
       transform="matrix(0.2025,0,0,0.2025,11.313137,17.859557)"
       id="g3689"
       style="fill:#ebeded;fill-opacity:1" />
    <g
       transform="matrix(0.2025,0,0,0.2025,11.313137,17.859557)"
       id="g3691"
       style="fill:#ebeded;fill-opacity:1" />
    <g
       transform="matrix(0.2025,0,0,0.2025,11.313137,17.859557)"
       id="g3693"
       style="fill:#ebeded;fill-opacity:1" />
    <g
       transform="matrix(0.2025,0,0,0.2025,11.313137,17.859557)"
       id="g3695"
       style="fill:#ebeded;fill-opacity:1" />
    <g
       transform="matrix(0.2025,0,0,0.2025,11.313137,17.859557)"
       id="g3697"
       style="fill:#ebeded;fill-opacity:1" />
    <g
       transform="matrix(0.2025,0,0,0.2025,11.313137,17.859557)"
       id="g3699"
       style="fill:#ebeded;fill-opacity:1" />
    <g
       transform="matrix(0.2025,0,0,0.2025,11.313137,17.859557)"
       id="g3701"
       style="fill:#ebeded;fill-opacity:1" />
    <g
       transform="matrix(0.2025,0,0,0.2025,11.313137,17.859557)"
       id="g3703"
       style="fill:#ebeded;fill-opacity:1" />
    <g
       transform="matrix(0.2025,0,0,0.2025,11.313137,17.859557)"
       id="g3705"
       style="fill:#ebeded;fill-opacity:1" />
    <g
       transform="matrix(0.2025,0,0,0.2025,11.313137,17.859557)"
       id="g3707"
       style="fill:#ebeded;fill-opacity:1" />
    <g
       transform="matrix(0.2025,0,0,0.2025,11.313137,17.859557)"
       id="g3709"
       style="fill:#ebeded;fill-opacity:1" />
    <g
       transform="matrix(0.51884044,0,0,0.51884044,-65.847195,-54.488427)"
       id="g599"
       style="fill:#737370;fill-opacity:1;stroke:none">
      <polygon
         style="fill:#737370;fill-opacity:1;stroke:none"
         points="184.642,143.629 340.526,71.579 340.526,274.219 184.642,357.35 "
         id="polygon597"
         transform="matrix(0.1356032,0.2932032,-0.00416466,0.97115047,323.55068,-54.480993)" />
      <rect
         style="fill:#737370;fill-opacity:1;stroke:none;stroke-width:2.33212352;stroke-opacity:1"
         id="rect1581"
         width="207.25262"
         height="207.25262"
         x="133.37123"
         y="139.58749" />
      <polygon
         style="fill:#737370;fill-opacity:1;stroke:none"
         points="340.526,274.219 184.642,357.35 184.642,143.629 340.526,71.579 "
         id="polygon597-3"
         transform="matrix(-0.31823348,-0.13560319,-0.97038174,0.00416466,540.83715,157.00748)" />
    </g>
    <g
       transform="matrix(0.3375,0,0,0.3375,136.96358,-2.8188527)"
       id="g601" />
    <g
       transform="matrix(0.3375,0,0,0.3375,136.96358,-2.8188527)"
       id="g603" />
    <g
       transform="matrix(0.3375,0,0,0.3375,136.96358,-2.8188527)"
       id="g605" />
    <g
       transform="matrix(0.3375,0,0,0.3375,136.96358,-2.8188527)"
       id="g607" />
    <g
       transform="matrix(0.3375,0,0,0.3375,136.96358,-2.8188527)"
       id="g609" />
    <g
       transform="matrix(0.3375,0,0,0.3375,136.96358,-2.8188527)"
       id="g611" />
    <g
       transform="matrix(0.3375,0,0,0.3375,136.96358,-2.8188527)"
       id="g613" />
    <g
       transform="matrix(0.3375,0,0,0.3375,136.96358,-2.8188527)"
       id="g615" />
    <g
       transform="matrix(0.3375,0,0,0.3375,136.96358,-2.8188527)"
       id="g617" />
    <g
       transform="matrix(0.3375,0,0,0.3375,136.96358,-2.8188527)"
       id="g619" />
    <g
       transform="matrix(0.3375,0,0,0.3375,136.96358,-2.8188527)"
       id="g621" />
    <g
       transform="matrix(0.3375,0,0,0.3375,136.96358,-2.8188527)"
       id="g623" />
    <g
       transform="matrix(0.3375,0,0,0.3375,136.96358,-2.8188527)"
       id="g625" />
    <g
       transform="matrix(0.3375,0,0,0.3375,136.96358,-2.8188527)"
       id="g627" />
    <g
       transform="matrix(0.3375,0,0,0.3375,136.96358,-2.8188527)"
       id="g629" />
    <g
       transform="matrix(0.1,0,0,0.1,8.3484168,22.672291)"
       style="fill:#82d1f5;fill-opacity:1"
       id="g1053" />
    <g
       transform="matrix(0.1,0,0,0.1,8.3484168,22.672291)"
       style="fill:#82d1f5;fill-opacity:1"
       id="g1055" />
    <g
       transform="matrix(0.1,0,0,0.1,8.3484168,22.672291)"
       style="fill:#82d1f5;fill-opacity:1"
       id="g1057" />
    <g
       transform="matrix(0.1,0,0,0.1,8.3484168,22.672291)"
       style="fill:#82d1f5;fill-opacity:1"
       id="g1059" />
    <g
       transform="matrix(0.1,0,0,0.1,8.3484168,22.672291)"
       style="fill:#82d1f5;fill-opacity:1"
       id="g1061" />
    <g
       transform="matrix(0.1,0,0,0.1,8.3484168,22.672291)"
       style="fill:#82d1f5;fill-opacity:1"
       id="g1063" />
    <g
       transform="matrix(0.1,0,0,0.1,8.3484168,22.672291)"
       style="fill:#82d1f5;fill-opacity:1"
       id="g1065" />
    <g
       transform="matrix(0.1,0,0,0.1,8.3484168,22.672291)"
       style="fill:#82d1f5;fill-opacity:1"
       id="g1067" />
    <g
       transform="matrix(0.1,0,0,0.1,8.3484168,22.672291)"
       style="fill:#82d1f5;fill-opacity:1"
       id="g1069" />
    <g
       transform="matrix(0.1,0,0,0.1,8.3484168,22.672291)"
       style="fill:#82d1f5;fill-opacity:1"
       id="g1071" />
    <g
       transform="matrix(0.1,0,0,0.1,8.3484168,22.672291)"
       style="fill:#82d1f5;fill-opacity:1"
       id="g1073" />
    <g
       transform="matrix(0.1,0,0,0.1,8.3484168,22.672291)"
       style="fill:#82d1f5;fill-opacity:1"
       id="g1075" />
    <g
       transform="matrix(0.1,0,0,0.1,8.3484168,22.672291)"
       style="fill:#82d1f5;fill-opacity:1"
       id="g1077" />
    <g
       transform="matrix(0.1,0,0,0.1,8.3484168,22.672291)"
       style="fill:#82d1f5;fill-opacity:1"
       id="g1079" />
    <g
       transform="matrix(0.1,0,0,0.1,8.3484168,22.672291)"
       style="fill:#82d1f5;fill-opacity:1"
       id="g1081" />
    <g
       id="g6025"
       transform="matrix(0.2,0,0,0.2,5.8510585,21.226137)"
       style="fill:#82d1f5;fill-opacity:1" />
    <g
       id="g6027"
       transform="matrix(0.2,0,0,0.2,5.8510585,21.226137)"
       style="fill:#82d1f5;fill-opacity:1" />
    <g
       id="g6029"
       transform="matrix(0.2,0,0,0.2,5.8510585,21.226137)"
       style="fill:#82d1f5;fill-opacity:1" />
    <g
       id="g6031"
       transform="matrix(0.2,0,0,0.2,5.8510585,21.226137)"
       style="fill:#82d1f5;fill-opacity:1" />
    <g
       id="g6033"
       transform="matrix(0.2,0,0,0.2,5.8510585,21.226137)"
       style="fill:#82d1f5;fill-opacity:1" />
    <g
       id="g6035"
       transform="matrix(0.2,0,0,0.2,5.8510585,21.226137)"
       style="fill:#82d1f5;fill-opacity:1" />
    <g
       id="g6037"
       transform="matrix(0.2,0,0,0.2,5.8510585,21.226137)"
       style="fill:#82d1f5;fill-opacity:1" />
    <g
       id="g6039"
       transform="matrix(0.2,0,0,0.2,5.8510585,21.226137)"
       style="fill:#82d1f5;fill-opacity:1" />
    <g
       id="g6041"
       transform="matrix(0.2,0,0,0.2,5.8510585,21.226137)"
       style="fill:#82d1f5;fill-opacity:1" />
    <g
       id="g6043"
       transform="matrix(0.2,0,0,0.2,5.8510585,21.226137)"
       style="fill:#82d1f5;fill-opacity:1" />
    <g
       id="g6045"
       transform="matrix(0.2,0,0,0.2,5.8510585,21.226137)"
       style="fill:#82d1f5;fill-opacity:1" />
    <g
       id="g6047"
       transform="matrix(0.2,0,0,0.2,5.8510585,21.226137)"
       style="fill:#82d1f5;fill-opacity:1" />
    <g
       id="g6049"
       transform="matrix(0.2,0,0,0.2,5.8510585,21.226137)"
       style="fill:#82d1f5;fill-opacity:1" />
    <g
       id="g6051"
       transform="matrix(0.2,0,0,0.2,5.8510585,21.226137)"
       style="fill:#82d1f5;fill-opacity:1" />
    <g
       id="g6053"
       transform="matrix(0.2,0,0,0.2,5.8510585,21.226137)"
       style="fill:#82d1f5;fill-opacity:1" />
    <g
       transform="matrix(0.275625,0,0,0.275625,8.0934882,21.988843)"
       id="g7050"
       style="fill:#ebeded;fill-opacity:1">
      <g
         id="g7048"
         style="fill:#ebeded;fill-opacity:1">
        <g
           id="g7046"
           style="fill:#ebeded;fill-opacity:1">
          <rect
             x="54"
             y="97"
             width="142"
             height="72"
             id="rect7022"
             style="fill:#ebeded;fill-opacity:1" />
          <path
             inkscape:connector-curvature="0"
             d="M 115,76 V 5 H 0 v 72 h 114.9 c -0.1,0 0.1,-0.7 0.1,-1 z"
             id="path7024"
             style="fill:#ebeded;fill-opacity:1" />
          <path
             inkscape:connector-curvature="0"
             d="m 115,189.9 c 0,-0.3 -0.1,-0.9 -0.1,-0.9 H 0 v 72 h 115 z"
             id="path7026"
             style="fill:#ebeded;fill-opacity:1" />
          <path
             inkscape:connector-curvature="0"
             d="m 277,261 v -71.1 c 0.1,-0.3 0.2,-0.6 0.4,-0.9 H 134.8 c 0.1,0.3 0.2,0.6 0.2,0.9 V 261 Z"
             id="path7028"
             style="fill:#ebeded;fill-opacity:1" />
          <path
             inkscape:connector-curvature="0"
             d="M 277,76 V 5 H 135 v 71 c 0,0.3 -0.1,0.7 -0.2,1 H 277.4 C 277.2,76.7 277,76.4 277,76 Z"
             id="path7030"
             style="fill:#ebeded;fill-opacity:1" />
          <rect
             x="0"
             y="97"
             width="34"
             height="72"
             id="rect7032"
             style="fill:#ebeded;fill-opacity:1" />
          <rect
             x="216"
             y="97"
             width="142"
             height="72"
             id="rect7034"
             style="fill:#ebeded;fill-opacity:1" />
          <path
             inkscape:connector-curvature="0"
             d="M 297,189.9 V 261 h 61 v -72 h -60.7 c -0.1,0.3 -0.2,0.6 -0.3,0.9 z"
             id="path7036"
             style="fill:#ebeded;fill-opacity:1" />
          <rect
             x="0"
             y="281"
             width="34"
             height="72"
             id="rect7038"
             style="fill:#ebeded;fill-opacity:1" />
          <path
             inkscape:connector-curvature="0"
             d="m 297,5 v 71 c 0.1,0.3 0.2,0.7 0.3,1 H 358 V 5 Z"
             id="path7040"
             style="fill:#ebeded;fill-opacity:1" />
          <rect
             x="54"
             y="281"
             width="142"
             height="72"
             id="rect7042"
             style="fill:#ebeded;fill-opacity:1" />
          <rect
             x="216"
             y="281"
             width="142"
             height="72"
             id="rect7044"
             style="fill:#ebeded;fill-opacity:1" />
        </g>
      </g>
    </g>
    <g
       transform="matrix(0.25,0,0,0.25,-106.92912,26.218675)"
       id="g7052" />
    <g
       transform="matrix(0.25,0,0,0.25,-106.92912,26.218675)"
       id="g7054" />
    <g
       transform="matrix(0.25,0,0,0.25,-106.92912,26.218675)"
       id="g7056" />
    <g
       transform="matrix(0.25,0,0,0.25,-106.92912,26.218675)"
       id="g7058" />
    <g
       transform="matrix(0.25,0,0,0.25,-106.92912,26.218675)"
       id="g7060" />
    <g
       transform="matrix(0.25,0,0,0.25,-106.92912,26.218675)"
       id="g7062" />
    <g
       transform="matrix(0.25,0,0,0.25,-106.92912,26.218675)"
       id="g7064" />
    <g
       transform="matrix(0.25,0,0,0.25,-106.92912,26.218675)"
       id="g7066" />
    <g
       transform="matrix(0.25,0,0,0.25,-106.92912,26.218675)"
       id="g7068" />
    <g
       transform="matrix(0.25,0,0,0.25,-106.92912,26.218675)"
       id="g7070" />
    <g
       transform="matrix(0.25,0,0,0.25,-106.92912,26.218675)"
       id="g7072" />
    <g
       transform="matrix(0.25,0,0,0.25,-106.92912,26.218675)"
       id="g7074" />
    <g
       transform="matrix(0.25,0,0,0.25,-106.92912,26.218675)"
       id="g7076" />
    <g
       transform="matrix(0.25,0,0,0.25,-106.92912,26.218675)"
       id="g7078" />
    <g
       transform="matrix(0.25,0,0,0.25,-106.92912,26.218675)"
       id="g7080" />
  </g>
  <defs
     id="defs2449">
    <inkscape:perspective
       sodipodi:type="inkscape:persp3d"
       inkscape:vp_x="-4.5741282 : 162.66539 : 1"
       inkscape:vp_y="0 : -24814.101 : 0"
       inkscape:vp_z="112.22065 : 162.66539 : 1"
       inkscape:persp3d-origin="53.823261 : 692.03287 : 1"
       id="perspective1565" />
  </defs>
</svg>
